<?xml version="1.0" encoding="UTF-8" standalone="no"?>
<!-- Created with Inkscape (http://www.inkscape.org/) -->

<svg
   width="256.00183"
   height="255.99908"
   viewBox="0 0 256.00183 255.99908"
   version="1.1"
   id="svg1"
   xmlns:xlink="http://www.w3.org/1999/xlink"
   xmlns="http://www.w3.org/2000/svg"
   xmlns:svg="http://www.w3.org/2000/svg">
  <defs
     id="defs1">
    <linearGradient
       id="linearGradient3">
      <stop
         style="stop-color:#8839ef;stop-opacity:1;"
         offset="0"
         id="stop3" />
      <stop
         style="stop-color:#1e66f5;stop-opacity:1;"
         offset="1"
         id="stop4" />
    </linearGradient>
    <linearGradient
       xlink:href="#linearGradient3"
       id="linearGradient4"
       x1="384.00092"
       y1="383.99908"
       x2="127.99908"
       y2="128"
       gradientUnits="userSpaceOnUse" />
  </defs>
  <g
     id="layer1"
     transform="translate(-127.99908,-128)">
    <path
       id="rect1"
       style="fill:url(#linearGradient4);fill-opacity:1;stroke-width:1.65622"
       d="m 256,128 c -13.54752,0 -27.09379,5.18745 -37.47461,15.56836 L 212.09375,150 h -9.0918 c -29.36138,0 -53,23.63837 -53,53 v 9.0918 l -6.43164,6.43164 c -20.76164,20.7618 -20.76164,54.18938 0,74.95117 l 6.43164,6.42969 v 9.09375 c 0,29.36162 23.63862,53 53,53 h 9.0918 l 6.43164,6.42968 c 20.76162,20.76181 54.18758,20.76181 74.94922,0 l 6.43164,-6.42968 h 9.0918 c 29.36138,0 53,-23.63838 53,-53 v -9.09375 l 6.43164,-6.42969 c 20.76164,-20.76179 20.76164,-54.18937 0,-74.95117 l -6.43164,-6.43164 V 203 c 0,-29.36163 -23.63862,-53 -53,-53 h -9.0918 l -6.43164,-6.43164 C 283.09378,133.18745 269.54752,128 256,128 Z m 0,32 c 10.16063,0 20.31985,3.89206 28.10547,11.67773 L 288.92969,176.5 H 295.75 c 22.02106,0 39.74805,17.72878 39.74805,39.75 v 6.82031 l 4.82422,4.82227 c 15.57123,15.57134 15.57123,40.64155 0,56.21289 l -4.82422,4.82422 v 6.81836 c 0,22.0212 -17.72699,39.75 -39.74805,39.75 h -6.82031 l -4.82422,4.82422 c -15.57124,15.57137 -40.63972,15.57137 -56.21094,0 l -4.82422,-4.82422 H 216.25 c -22.02103,0 -39.74805,-17.7288 -39.74805,-39.75 v -6.81836 l -4.82422,-4.82422 c -15.57122,-15.57134 -15.57122,-40.64155 0,-56.21289 l 4.82422,-4.82227 V 216.25 c 0,-22.02122 17.72702,-39.75 39.74805,-39.75 h 6.82031 l 4.82422,-4.82227 C 235.68014,163.89206 245.83937,160 256,160 Z" />
  </g>
</svg>
