<?xml version="1.0" encoding="UTF-8" standalone="no"?>
<!-- Created with Inkscape (http://www.inkscape.org/) -->

<svg
   width="512"
   height="512"
   viewBox="0 0 512 512"
   version="1.1"
   id="svg1"
   sodipodi:docname="starttutorial.svg"
   inkscape:version="1.3.2 (1:1.3.2+202404261509+091e20ef0f)"
   xmlns:inkscape="http://www.inkscape.org/namespaces/inkscape"
   xmlns:sodipodi="http://sodipodi.sourceforge.net/DTD/sodipodi-0.dtd"
   xmlns:xlink="http://www.w3.org/1999/xlink"
   xmlns="http://www.w3.org/2000/svg"
   xmlns:svg="http://www.w3.org/2000/svg">
  <sodipodi:namedview
     id="namedview1"
     pagecolor="#ffffff"
     bordercolor="#000000"
     borderopacity="0.25"
     inkscape:showpageshadow="2"
     inkscape:pageopacity="0.0"
     inkscape:pagecheckerboard="0"
     inkscape:deskcolor="#d1d1d1"
     inkscape:document-units="px"
     inkscape:zoom="1.7304688"
     inkscape:cx="255.99999"
     inkscape:cy="255.99999"
     inkscape:window-width="1920"
     inkscape:window-height="1131"
     inkscape:window-x="0"
     inkscape:window-y="0"
     inkscape:window-maximized="1"
     inkscape:current-layer="layer1" />
  <defs
     id="defs1">
    <linearGradient
       id="linearGradient3"
       inkscape:collect="always">
      <stop
         style="stop-color:#8839ef;stop-opacity:1;"
         offset="0"
         id="stop3" />
      <stop
         style="stop-color:#1e66f5;stop-opacity:1;"
         offset="1"
         id="stop4" />
    </linearGradient>
    <linearGradient
       inkscape:collect="always"
       xlink:href="#linearGradient3"
       id="linearGradient4"
       x1="384.00092"
       y1="383.99908"
       x2="127.99908"
       y2="128"
       gradientUnits="userSpaceOnUse" />
  </defs>
  <g
     inkscape:label="Layer 1"
     inkscape:groupmode="layer"
     id="layer1">
    <path
       id="rect1"
       style="fill:url(#linearGradient4);stroke-width:1.65622;fill-opacity:1"
       d="M 256 128 C 242.45248 128 228.90621 133.18745 218.52539 143.56836 L 212.09375 150 L 203.00195 150 C 173.64057 150 150.00195 173.63837 150.00195 203 L 150.00195 212.0918 L 143.57031 218.52344 C 122.80867 239.28524 122.80867 272.71282 143.57031 293.47461 L 150.00195 299.9043 L 150.00195 308.99805 C 150.00195 338.35967 173.64057 361.99805 203.00195 361.99805 L 212.09375 361.99805 L 218.52539 368.42773 C 239.28701 389.18954 272.71297 389.18954 293.47461 368.42773 L 299.90625 361.99805 L 308.99805 361.99805 C 338.35943 361.99805 361.99805 338.35967 361.99805 308.99805 L 361.99805 299.9043 L 368.42969 293.47461 C 389.19133 272.71282 389.19133 239.28524 368.42969 218.52344 L 361.99805 212.0918 L 361.99805 203 C 361.99805 173.63837 338.35943 150 308.99805 150 L 299.90625 150 L 293.47461 143.56836 C 283.09378 133.18745 269.54752 128 256 128 z M 256 160 C 266.16063 160 276.31985 163.89206 284.10547 171.67773 L 288.92969 176.5 L 295.75 176.5 C 317.77106 176.5 335.49805 194.22878 335.49805 216.25 L 335.49805 223.07031 L 340.32227 227.89258 C 355.8935 243.46392 355.8935 268.53413 340.32227 284.10547 L 335.49805 288.92969 L 335.49805 295.74805 C 335.49805 317.76925 317.77106 335.49805 295.75 335.49805 L 288.92969 335.49805 L 284.10547 340.32227 C 268.53423 355.89364 243.46575 355.89364 227.89453 340.32227 L 223.07031 335.49805 L 216.25 335.49805 C 194.22897 335.49805 176.50195 317.76925 176.50195 295.74805 L 176.50195 288.92969 L 171.67773 284.10547 C 156.10651 268.53413 156.10651 243.46392 171.67773 227.89258 L 176.50195 223.07031 L 176.50195 216.25 C 176.50195 194.22878 194.22897 176.5 216.25 176.5 L 223.07031 176.5 L 227.89453 171.67773 C 235.68014 163.89206 245.83937 160 256 160 z "
       inkscape:export-filename="../public/starttutorial.svg"
       inkscape:export-xdpi="96"
       inkscape:export-ydpi="96" />
  </g>
</svg>
